<?xml version="1.0" encoding="UTF-8" standalone="no"?><!DOCTYPE svg PUBLIC "-//W3C//DTD SVG 1.1//EN" "http://www.w3.org/Graphics/SVG/1.1/DTD/svg11.dtd"><svg width="100%" height="100%" viewBox="0 0 100 100" version="1.1" xmlns="http://www.w3.org/2000/svg" xmlns:xlink="http://www.w3.org/1999/xlink" xml:space="preserve" style="fill-rule:evenodd;clip-rule:evenodd;stroke-linejoin:round;stroke-miterlimit:1.41421;"><path d="M98.02,52.192c1.138,-1.138 1.138,-2.987 0,-4.125l-25.787,-25.787c-1.139,-1.139 -2.987,-1.139 -4.125,0l-4.125,4.124c-1.138,1.139 -1.138,2.987 0,4.125l25.788,25.788c1.138,1.138 2.986,1.138 4.124,0l4.125,-4.125Z" style="fill:#ebebeb;"/><path d="M58.227,8.451c-1.032,-0.261 -2.081,0.366 -2.342,1.397l-19.51,77.256c-0.261,1.032 0.365,2.082 1.397,2.342l3.74,0.945c1.032,0.26 2.081,-0.366 2.342,-1.398l19.51,-77.256c0.261,-1.032 -0.366,-2.081 -1.397,-2.342l-3.74,-0.944Z" style="fill:#ebebeb;"/><path d="M93.866,43.918c-1.138,-1.139 -2.986,-1.139 -4.125,0l-25.787,25.787c-1.138,1.138 -1.138,2.987 0,4.125l4.125,4.125c1.138,1.138 2.986,1.138 4.124,0l25.788,-25.788c1.138,-1.138 1.138,-2.986 0,-4.125l-4.125,-4.124Z" style="fill:#ebebeb;"/><path d="M1.612,48.124c-1.138,1.138 -1.138,2.986 0,4.124l25.788,25.788c1.138,1.138 2.986,1.138 4.125,0l4.124,-4.125c1.139,-1.138 1.139,-2.986 0,-4.125l-25.787,-25.787c-1.138,-1.138 -2.987,-1.138 -4.125,0l-4.125,4.125Z" style="fill:#ebebeb;"/><path d="M5.766,56.398c1.139,1.138 2.987,1.138 4.125,0l25.788,-25.788c1.138,-1.138 1.138,-2.986 0,-4.124l-4.125,-4.125c-1.138,-1.138 -2.987,-1.138 -4.125,0l-25.787,25.787c-1.139,1.139 -1.139,2.987 0,4.125l4.124,4.125Z" style="fill:#ebebeb;"/></svg>