<?xml version="1.0" encoding="UTF-8" standalone="no"?><!DOCTYPE svg PUBLIC "-//W3C//DTD SVG 1.1//EN" "http://www.w3.org/Graphics/SVG/1.1/DTD/svg11.dtd"><svg width="100%" height="100%" viewBox="0 0 100 100" version="1.1" xmlns="http://www.w3.org/2000/svg" xmlns:xlink="http://www.w3.org/1999/xlink" xml:space="preserve" style="fill-rule:evenodd;clip-rule:evenodd;stroke-linejoin:round;stroke-miterlimit:1.41421;"><path d="M44.98,58.658c1.427,-1.427 1.427,-3.743 0,-5.17l-32.321,-32.321c-1.427,-1.427 -3.744,-1.427 -5.17,0l-5.17,5.17c-1.427,1.426 -1.427,3.743 0,5.17l32.321,32.321c1.427,1.426 3.743,1.426 5.17,0l5.17,-5.17Z" style="fill:#ebebeb;"/><path d="M99.389,81.153c0,-2.017 -1.638,-3.655 -3.656,-3.655l-45.709,0c-2.018,0 -3.656,1.638 -3.656,3.655l0,7.312c0,2.017 1.638,3.655 3.656,3.655l45.709,0c2.018,0 3.656,-1.638 3.656,-3.655l0,-7.312Z" style="fill:#ebebeb;"/><path d="M39.773,48.287c-1.426,-1.426 -3.743,-1.426 -5.169,0l-32.322,32.322c-1.426,1.426 -1.426,3.743 0,5.169l5.17,5.17c1.427,1.427 3.743,1.427 5.17,0l32.321,-32.321c1.427,-1.427 1.427,-3.743 0,-5.17l-5.17,-5.17Z" style="fill:#ebebeb;"/></svg>