<?xml version="1.0" encoding="UTF-8" standalone="no"?><!DOCTYPE svg PUBLIC "-//W3C//DTD SVG 1.1//EN" "http://www.w3.org/Graphics/SVG/1.1/DTD/svg11.dtd"><svg width="100%" height="100%" viewBox="0 0 200 200" version="1.1" xmlns="http://www.w3.org/2000/svg" xmlns:xlink="http://www.w3.org/1999/xlink" xml:space="preserve" style="fill-rule:evenodd;clip-rule:evenodd;stroke-linejoin:round;stroke-miterlimit:1.41421;"><g id="Layer-36"><path d="M140.085,101.91c-0.011,-22.366 -17.678,-40.425 -39.561,-40.438c-22.057,-0.013 -39.721,17.995 -39.718,40.491c0.004,22.45 17.732,40.48 39.779,40.458c21.855,-0.023 39.511,-18.13 39.5,-40.511m-139.639,0.483l0,-0.893c9.642,-9.595 19.397,-19.068 29.942,-27.689c12.209,-9.98 25.188,-18.663 40.134,-24.084c6.949,-2.521 14.149,-3.918 21.442,-4.923l16.964,0c0.359,0.088 0.713,0.222 1.077,0.258c12.892,1.293 24.933,5.32 36.351,11.328c15.828,8.328 29.289,19.717 41.705,32.428c4.203,4.303 8.261,8.748 12.385,13.128l0,0.893c-9.22,9.285 -18.508,18.496 -28.636,26.812c-12.842,10.544 -26.638,19.443 -42.48,24.869c-6.78,2.323 -13.774,3.614 -20.848,4.569l-16.964,0c-6.416,-0.773 -12.777,-1.821 -18.982,-3.685c-17.401,-5.226 -31.904,-15.275 -45.325,-27.149c-9.301,-8.23 -17.906,-17.177 -26.765,-25.862" style="fill-rule:nonzero;"/><path d="M100.773,126.045c-13.075,-0.005 -23.466,-10.442 -23.974,-23.748c-0.459,-12.026 9.146,-23.023 21.151,-24.196c1.18,-0.116 2.377,-0.263 3.551,-0.179c2.373,0.169 2.458,0.4 1.286,2.431c-3.564,6.18 -2.394,13.396 2.916,17.992c4.251,3.679 10.424,4.333 15.652,1.657c2.366,-1.21 2.755,-1.037 2.73,1.63c-0.138,14.67 -11.197,23.34 -21.201,24.175c-0.815,0.068 -1.625,0.183 -2.111,0.238" style="fill-rule:nonzero;"/></g></svg>