<?xml version="1.0" encoding="UTF-8" standalone="no"?><!DOCTYPE svg PUBLIC "-//W3C//DTD SVG 1.1//EN" "http://www.w3.org/Graphics/SVG/1.1/DTD/svg11.dtd"><svg width="100%" height="100%" viewBox="0 0 200 200" version="1.1" xmlns="http://www.w3.org/2000/svg" xmlns:xlink="http://www.w3.org/1999/xlink" xml:space="preserve" style="fill-rule:evenodd;clip-rule:evenodd;stroke-linejoin:round;stroke-miterlimit:1.41421;"><g id="Layer-31"><path d="M97.863,43.311c-12.746,0.303 -22.153,-9.711 -22.153,-21.85c0,-10.014 10.318,-20.028 23.671,-20.028c14.869,0 22.456,10.317 22.456,19.118c0,10.014 -6.98,22.153 -23.974,22.76m41.575,155.678c-2.428,0 -16.388,-0.91 -42.789,-0.91c-17.601,0 -29.436,0.91 -32.774,0.91c-1.518,0 -2.428,-0.606 -2.428,-3.034l0,-6.069c0,-1.822 0.91,-2.428 3.034,-2.428l11.229,0c3.338,0 5.462,-1.214 5.765,-6.069c0.608,-9.105 0.608,-18.512 0.608,-27.009l-0.608,-42.486c0,-8.497 -1.82,-14.566 -14.566,-19.118c-3.338,-1.214 -3.642,-2.427 -3.642,-4.249l0,-3.338c0,-0.91 0.608,-1.517 3.339,-2.427l45.216,-14.567c3.338,-1.214 6.069,-1.821 8.193,-1.821c2.428,0 3.339,1.518 3.035,3.642c-0.607,5.159 -0.607,24.277 -0.607,50.982l0,32.472c0,11.835 0,22.759 0.304,26.097c0.607,5.767 2.124,7.891 5.463,7.891l10.924,0c2.428,0 3.035,0.91 3.035,2.731l0,5.766c0,2.124 -0.607,3.034 -2.731,3.034" style="fill-rule:nonzero;"/></g></svg>